<mxfile host="app.diagrams.net" modified="2024-05-15T05:43:34.242Z" agent="Mozilla/5.0 (Windows NT 10.0; Win64; x64) AppleWebKit/537.36 (KHTML, like Gecko) Chrome/124.0.0.0 Safari/537.36 Edg/124.0.0.0" etag="eXLrmc4hbXBIk-6yLaDn" version="24.4.0" type="onedrive">
  <diagram name="ページ1" id="ko-8uPsDhV1OZfkAIlq5">
    <mxGraphModel grid="1" page="1" gridSize="10" guides="1" tooltips="1" connect="1" arrows="1" fold="1" pageScale="1" pageWidth="827" pageHeight="1169" math="0" shadow="0">
      <root>
        <mxCell id="0" />
        <mxCell id="1" parent="0" />
        <mxCell id="P-3A_ir-3UfBgf-_ftdf-7" style="edgeStyle=orthogonalEdgeStyle;rounded=0;orthogonalLoop=1;jettySize=auto;html=1;exitX=0.5;exitY=1;exitDx=0;exitDy=0;entryX=0.5;entryY=0;entryDx=0;entryDy=0;" edge="1" parent="1" source="P-3A_ir-3UfBgf-_ftdf-1" target="P-3A_ir-3UfBgf-_ftdf-4">
          <mxGeometry relative="1" as="geometry" />
        </mxCell>
        <mxCell id="P-3A_ir-3UfBgf-_ftdf-1" value="main()関数&lt;div&gt;開始&lt;/div&gt;" style="rounded=0;whiteSpace=wrap;html=1;" vertex="1" parent="1">
          <mxGeometry x="200" width="120" height="60" as="geometry" />
        </mxCell>
        <mxCell id="P-3A_ir-3UfBgf-_ftdf-10" style="edgeStyle=orthogonalEdgeStyle;rounded=0;orthogonalLoop=1;jettySize=auto;html=1;exitX=0.5;exitY=1;exitDx=0;exitDy=0;entryX=0.5;entryY=0;entryDx=0;entryDy=0;" edge="1" parent="1" source="P-3A_ir-3UfBgf-_ftdf-2" target="P-3A_ir-3UfBgf-_ftdf-6">
          <mxGeometry relative="1" as="geometry" />
        </mxCell>
        <mxCell id="P-3A_ir-3UfBgf-_ftdf-2" value="逆行列は存在しないというメッセージの出力" style="rounded=1;whiteSpace=wrap;html=1;" vertex="1" parent="1">
          <mxGeometry x="200" y="270" width="120" height="60" as="geometry" />
        </mxCell>
        <mxCell id="P-3A_ir-3UfBgf-_ftdf-8" style="edgeStyle=orthogonalEdgeStyle;rounded=0;orthogonalLoop=1;jettySize=auto;html=1;exitX=0.5;exitY=1;exitDx=0;exitDy=0;entryX=0.5;entryY=0;entryDx=0;entryDy=0;" edge="1" parent="1" source="P-3A_ir-3UfBgf-_ftdf-4" target="P-3A_ir-3UfBgf-_ftdf-5">
          <mxGeometry relative="1" as="geometry" />
        </mxCell>
        <mxCell id="P-3A_ir-3UfBgf-_ftdf-4" value="inin()関数の呼び出し" style="rounded=1;whiteSpace=wrap;html=1;" vertex="1" parent="1">
          <mxGeometry x="200" y="90" width="120" height="60" as="geometry" />
        </mxCell>
        <mxCell id="P-3A_ir-3UfBgf-_ftdf-9" style="edgeStyle=orthogonalEdgeStyle;rounded=0;orthogonalLoop=1;jettySize=auto;html=1;exitX=0.5;exitY=1;exitDx=0;exitDy=0;entryX=0.5;entryY=0;entryDx=0;entryDy=0;" edge="1" parent="1" source="P-3A_ir-3UfBgf-_ftdf-5" target="P-3A_ir-3UfBgf-_ftdf-2">
          <mxGeometry relative="1" as="geometry" />
        </mxCell>
        <mxCell id="P-3A_ir-3UfBgf-_ftdf-12" style="edgeStyle=orthogonalEdgeStyle;rounded=0;orthogonalLoop=1;jettySize=auto;html=1;exitX=1;exitY=0.5;exitDx=0;exitDy=0;entryX=1;entryY=0.75;entryDx=0;entryDy=0;" edge="1" parent="1" source="P-3A_ir-3UfBgf-_ftdf-5" target="P-3A_ir-3UfBgf-_ftdf-6">
          <mxGeometry relative="1" as="geometry" />
        </mxCell>
        <mxCell id="P-3A_ir-3UfBgf-_ftdf-5" value="rever(A,revA) ==0" style="rhombus;whiteSpace=wrap;html=1;" vertex="1" parent="1">
          <mxGeometry x="200" y="170" width="120" height="80" as="geometry" />
        </mxCell>
        <mxCell id="P-3A_ir-3UfBgf-_ftdf-6" value="終了" style="rounded=0;whiteSpace=wrap;html=1;" vertex="1" parent="1">
          <mxGeometry x="200" y="360" width="120" height="60" as="geometry" />
        </mxCell>
        <mxCell id="P-3A_ir-3UfBgf-_ftdf-11" value="True" style="text;html=1;align=center;verticalAlign=middle;resizable=0;points=[];autosize=1;strokeColor=none;fillColor=none;" vertex="1" parent="1">
          <mxGeometry x="210" y="240" width="50" height="30" as="geometry" />
        </mxCell>
        <mxCell id="P-3A_ir-3UfBgf-_ftdf-13" value="False" style="text;html=1;align=center;verticalAlign=middle;resizable=0;points=[];autosize=1;strokeColor=none;fillColor=none;" vertex="1" parent="1">
          <mxGeometry x="295" y="168" width="50" height="30" as="geometry" />
        </mxCell>
      </root>
    </mxGraphModel>
  </diagram>
</mxfile>
